<svg id="Layer_1" data-name="Layer 1" xmlns="http://www.w3.org/2000/svg" viewBox="0 0 331.03 331.03"><defs><style>.cls-1{fill:#939598;}.cls-2{fill:#fff;stroke:#231f20;stroke-miterlimit:10;}</style></defs><path class="cls-1" d="M297,130.45A165.52,165.52,0,1,0,462.52,296,165.52,165.52,0,0,0,297,130.45ZM297,420A124.07,124.07,0,1,1,421.07,296,124.06,124.06,0,0,1,297,420Z" transform="translate(-131.48 -130.45)"/><path class="cls-2" d="M318,275" transform="translate(-131.48 -130.45)"/><path class="cls-2" d="M276,275" transform="translate(-131.48 -130.45)"/><polyline class="cls-1" points="186.6 182.52 186.6 261.59 144.67 261.59 144.67 182.52"/><polyline class="cls-1" points="144.67 140.59 144.67 69.44 186.6 69.44 186.6 140.59"/><polyline class="cls-1" points="145.13 182.52 70.01 182.52 70.01 140.59 145.13 140.59"/><polyline class="cls-1" points="186.02 140.59 261.13 140.59 261.13 182.52 186.02 182.52"/><rect class="cls-1" x="144.54" y="140.12" width="41.96" height="42.87"/></svg>